<svg xmlns="http://www.w3.org/2000/svg" width="1500" height="300"><path d="M92.898 275.742c-1.869-1.242-4.41-4.262-5.648-6.712L85 264.576V34.424l2.25-4.454c1.238-2.45 3.779-5.47 5.648-6.712L96.296 21h235.968l3.4 2.1c1.869 1.156 4.284 3.838 5.367 5.96C342.956 32.836 343 35.508 343 149.5s-.044 116.665-1.969 120.44c-1.083 2.122-3.498 4.804-5.368 5.96l-3.4 2.1H96.297zm151.999-47.28c19.284-4.545 34.457-19.848 39.581-39.922.842-3.296 1.522-10.242 1.522-15.54 0-15.982-4.256-27.842-13.621-37.957-6.92-7.474-13.392-11.61-23.135-14.779-6.795-2.21-10.016-2.58-26.296-3.018-21.758-.585-21.948-.515-21.948 8.125 0 2.876.54 5.769 1.2 6.429.802.802 5.36 1.21 13.75 1.23 16.236.04 26.032 1.357 32.656 4.39 7.59 3.475 14.57 10.39 18.014 17.846 2.652 5.74 2.878 7.145 2.855 17.734-.022 9.741-.39 12.418-2.413 17.5-3.265 8.206-12.331 17.28-20.562 20.58-5.927 2.377-6.472 2.41-45 2.7-34.905.261-39.131.466-40.25 1.947-1.594 2.111-1.63 11.493-.05 13.073 1.94 1.94 75.292 1.644 83.697-.337zm-19.535-47.738c1.412-1.032 1.687-2.513 1.442-7.75l-.304-6.474-17.5-.605c-19.463-.673-26.45-2.117-34.247-7.079-12.368-7.87-18.704-23.815-15.918-40.06 2.509-14.63 8.79-23.484 20.914-29.478l7.641-3.778 39.019-.305c25.75-.201 39.456-.668 40.305-1.372 1.645-1.366 1.713-11.996.086-13.623-1.606-1.606-74.298-1.698-82-.103-26.482 5.482-44.238 30.46-42.426 59.68 1.73 27.876 19.166 47.176 46.173 51.112 9.799 1.428 34.79 1.316 36.815-.165zM439.5 230.326c-11.161-1.393-27.136-6.202-28.751-8.656-1.045-1.587.144-8.852 1.72-10.504 1.057-1.11 2.602-.915 9.151 1.152 13.02 4.11 19.28 4.956 33.078 4.475 13.85-.482 18.605-1.795 23.503-6.487 7.564-7.244 2.618-18.004-11.288-24.558-2.977-1.403-11.038-4.672-17.913-7.264-25.062-9.45-35.32-16.899-38.545-27.99-1.797-6.183-1.445-13.197.95-18.912 4.763-11.364 18.56-17.557 39.095-17.548 11.11.005 31.32 2.386 32.798 3.864 1.276 1.276-.043 9.646-1.743 11.057-.97.805-5.085.857-14.701.186-14.598-1.018-29.728-.072-35.045 2.192-5.002 2.13-7.97 5.923-8.532 10.9-.893 7.927 4.391 12.047 27.408 21.372 23.25 9.418 30.14 13.126 36.937 19.875 7.016 6.967 8.596 11.444 7.33 20.772-.999 7.363-3.278 11.872-8.378 16.573-8.629 7.954-28.054 11.875-47.074 9.501zm112.69-1.015c-.52-.996-9.127-26.483-19.126-56.639-14.44-43.546-17.937-55.12-17-56.25 1.367-1.646 9.124-1.927 11.92-.43 1.332.712 5.6 12.243 15.165 40.97 7.322 21.987 13.626 39.653 14.01 39.258.383-.396 8.654-18.27 18.38-39.72 9.726-21.45 18.158-39.585 18.737-40.3.579-.716 2.127-1.166 3.44-1 2.105.265 4.535 5.029 20.687 40.569 10.066 22.148 18.546 40.513 18.845 40.812.3.3 6.492-17.372 13.763-39.268 7.35-22.138 13.945-40.387 14.854-41.106 2.273-1.798 11.137-1.173 12.421.875.738 1.177-3.69 15.667-17.267 56.5-10.042 30.205-18.888 55.585-19.658 56.401-1.018 1.08-1.84 1.205-3.02.46-.891-.562-10.048-18.697-20.349-40.3-10.3-21.604-19.238-39.789-19.86-40.411-.712-.712-1.469-.78-2.04-.182-.5.522-9.476 18.95-19.947 40.95-14.794 31.081-19.481 40.07-21.024 40.31-1.14.179-2.389-.46-2.931-1.5zm252.76.327c-13.264-3.578-20.555-14.014-22.91-32.793-.572-4.56-1.04-21.917-1.04-38.569V128h-12.965c-14.38 0-15.035-.305-15.035-7s.654-7 15.035-7H781V92.2c0-15.622.34-22.14 1.2-23 1.556-1.556 10.044-1.556 11.6 0 .86.86 1.2 7.373 1.2 22.976v21.777l17.25.273 17.25.274v13l-17 .5-17 .5.017 34c.015 29.956.233 34.705 1.83 39.93 3.246 10.614 9.43 14.553 22.868 14.564 7.438.006 8.031.47 9.31 7.285 1.109 5.912-.234 6.732-10.897 6.654-5.02-.038-11.175-.62-13.677-1.295zm93.55.713c-13.885-2.891-23.033-7.66-32.112-16.739-14.63-14.63-20.496-34.803-15.85-54.509 4.812-20.418 23.147-38.753 43.565-43.566 8.162-1.923 21.6-1.931 29.722-.016 7.155 1.686 17.157 6.27 17.898 8.2.807 2.104-.515 5.763-3.086 8.536l-2.41 2.602-5.957-2.406c-7.606-3.072-20.49-4.554-29.05-3.342-14.159 2.005-26.962 11.789-33.505 25.601-3.04 6.419-3.215 7.413-3.215 18.288 0 10.865.177 11.873 3.201 18.259 5.692 12.015 16.348 21.07 28.65 24.346 6.799 1.81 19.454 1.732 28.149-.175 14.171-3.107 13.039-3.26 15.408 2.095 2.53 5.718 2.027 6.609-5.25 9.325-8.972 3.35-28.027 5.195-36.158 3.501zm-187.929-1.922c-1.39-1.39-1.571-7.88-1.571-56.3 0-41.234.296-55.025 1.2-55.929.66-.66 3.098-1.2 5.418-1.2 8.071 0 7.382-5.313 7.382 56.907 0 41.983-.295 55.988-1.2 56.893-1.751 1.751-9.358 1.5-11.229-.371zm265.179.49c-1.643-.956-1.75-5.827-1.75-79.846 0-66.845.216-79.007 1.419-80.006.817-.678 3.679-1.048 6.75-.872l5.331.305.264 31.75.264 31.75 5.542-4.514c11.413-9.296 23.198-13.486 37.93-13.486 20.691 0 34.847 7.617 41.473 22.317 4.923 10.922 5.233 13.815 5.739 53.628.446 35.103.364 37.526-1.31 38.75-2.238 1.637-9.601 1.706-11.202.105-.885-.885-1.2-9.835-1.2-34.058 0-32.58-.786-43.592-3.59-50.304-3.717-8.895-11.968-13.905-25.43-15.44-19.195-2.19-34.765 5.682-42.777 21.627-4.703 9.359-5.203 13.864-5.203 46.889 0 29.048-.087 30.462-1.934 31.45-2.45 1.312-8.03 1.287-10.316-.044zm287.45-.119c-.905-.905-1.2-14.91-1.2-56.893 0-62.22-.69-56.907 7.382-56.907 2.32 0 4.758.54 5.418 1.2.904.904 1.2 14.695 1.2 55.929 0 48.42-.181 54.91-1.571 56.3-1.871 1.87-9.478 2.122-11.229.371zm49.371-.371c-1.39-1.39-1.571-7.88-1.571-56.3 0-41.234.296-55.025 1.2-55.929 1.473-1.473 7.24-1.57 9.866-.165 1.375.736 1.937 2.108 1.945 4.75.01 2.043.284 5.365.617 7.381l.606 3.666 5.44-4.43c11.215-9.135 23.15-13.402 37.487-13.402 21.128 0 34.125 6.706 41.357 21.34 5.662 11.455 6.407 18.148 6.447 57.875.034 33.317-.043 34.756-1.9 35.75-2.652 1.42-8.334 1.301-10.322-.215-1.459-1.112-1.677-5.457-1.973-39.25-.32-36.486-.422-38.221-2.55-43.551-4.027-10.09-12.088-15.358-25.861-16.903-18.973-2.128-34.284 5.279-42.583 20.6-5.064 9.35-5.745 15.012-5.761 47.904-.011 22.022-.336 30.37-1.215 31.25-1.751 1.751-9.357 1.5-11.229-.371zm-201.162-.806c-.29-.757-.39-3.57-.219-6.25l.31-4.873 25.5-.61c22.232-.533 26.459-.894 32.984-2.819 21.134-6.234 36.428-20.371 42.882-39.639 4.725-14.107 4.734-32.54.02-47.432-6.708-21.198-22.918-36.51-44.496-42.028-6.978-1.785-11.155-1.972-43.979-1.972-31.638 0-36.469-.2-37.84-1.571-2.018-2.02-2.1-9.745-.12-11.388 1.096-.91 10.953-1.104 40.25-.793 36.534.388 39.237.542 46.299 2.638 22.021 6.536 38.59 20.49 48.526 40.867 12.593 25.824 10.729 60.335-4.516 83.61-11.117 16.974-28.111 27.952-49.848 32.202-10.313 2.017-54.984 2.063-55.753.058zM709.923 99.077c-4.794-4.795-3.773-11.552 2.214-14.648 7.814-4.04 16.462 4.644 12.416 12.468-3.078 5.953-9.848 6.962-14.63 2.18zm553.827 1.843c-.963-.56-2.454-2.38-3.313-4.043-4.037-7.805 4.625-16.482 12.426-12.448 3.678 1.902 5.137 4.34 5.137 8.582 0 6.47-8.562 11.222-14.25 7.909z" fill="#00b199"/><path d="M434.42 228.494c-19.966-3.77-25.567-7.28-22.47-14.077l1.64-3.598 9.701 2.998c13.015 4.022 42.931 4.449 49.934.712 9.494-5.067 11.592-13.425 5.259-20.952-4.414-5.245-8.184-7.258-31.933-17.045-27.947-11.517-36.297-19.493-36.102-34.483.218-16.827 11.939-25.481 36.102-26.655 13.652-.663 33.622 1.292 35.839 3.508.657.657.676 3.106.044 5.442l-1.15 4.248-16.296-.479c-22.673-.666-33.733 1.297-38.775 6.881-4.276 4.737-4.813 7.926-2.272 13.504 2.122 4.658 7.12 7.54 30.084 17.345 10.312 4.404 21.042 9.454 23.843 11.222 7.199 4.545 15.315 13.948 16.433 19.04 1.155 5.26-1.364 15.247-5.206 20.644-3.84 5.39-14.627 10.61-25.615 12.394-11.348 1.841-16.477 1.726-29.06-.65zM553.265 229.761c-1.072-1.844-34.914-104.765-35.91-109.213-.953-4.253 1.586-5.618 7.673-4.125 3.213.788 4.829 4.567 17.126 40.06 7.468 21.553 14.196 39.188 14.951 39.188.755 0 9.46-17.66 19.346-39.244 11.333-24.745 18.811-39.405 20.24-39.68 2.421-.467 5.149 4.844 27.346 53.234 6.48 14.13 12.389 25.598 13.129 25.487.74-.112 6.002-13.6 11.693-29.972s12.01-34.103 14.041-39.402c3.69-9.622 3.7-9.633 9.277-9.633 3.07 0 5.582.533 5.582 1.184 0 3.49-34.066 106.08-36.916 111.173-1.48 2.645-2.926.08-22.313-39.57-19.898-40.694-20.672-42.04-22.86-39.745-1.01 1.058-9.64 18.301-19.18 38.318-17.18 36.043-21.801 44.389-23.225 41.94zM711.339 227.848c-1.647-2.665-2.62-56.869-1.517-84.51l1.063-26.643 3.555-.892c7.658-1.922 7.627-2.162 7.223 57.578l-.374 55.116-4.504.437c-2.478.24-4.928-.248-5.446-1.086zM807.517 229.31c-12.17-2.38-20.653-12.408-23.99-28.357-.891-4.266-1.581-21.846-1.581-40.32v-32.755h-9.099c-17.003 0-20.728-1.833-18.859-9.28.876-3.487 1.189-3.565 14.39-3.565h13.495l.393-22.478.393-22.479 5.148-.43c5.132-.43 5.151-.41 6.066 6.264.505 3.683.918 13.992.918 22.91v16.213h34.253v11.011l-8.773.917c-4.825.505-12.58.917-17.233.917h-8.46l.463 36.75c.414 32.829.757 37.342 3.21 42.285 3.328 6.706 11.299 10.803 21.109 10.848 5.172.024 7.07.67 8.206 2.792 2.16 4.036 1.806 8.226-.78 9.218-2.83 1.086-12.543.853-19.27-.462zM709.786 97.263c-2.975-4.54-2.262-7.644 2.583-11.258l3.925-2.928 3.925 2.92c2.159 1.605 4.137 4.353 4.396 6.105 1.158 7.826-10.438 11.862-14.829 5.161zM895.692 229.165c-29.35-7.398-49.798-36.887-45.194-65.177 2.896-17.79 16.537-35.647 33.494-43.843 11.875-5.74 31.551-6.791 44.144-2.359 4.655 1.639 9.617 4.024 11.028 5.3 2.438 2.207 2.443 2.526.105 6.486-1.86 3.148-3.158 3.943-5.32 3.258-25.843-8.186-45.343-5.078-58.331 9.299-9.25 10.238-11.515 16.28-11.512 30.706.002 11.106.511 13.812 3.755 19.981 11.708 22.266 35.038 29.766 66.221 21.29 2.375-.646 3.385.133 4.891 3.769 1.689 4.077 1.617 4.788-.652 6.447-5.8 4.24-32.834 7.311-42.628 4.843zM976.097 226.45c-1.593-2.976-2.138-148.056-.578-153.876.705-2.631 1.862-3.211 6.403-3.211h5.542v31.398c0 28.555.7 34.612 3.482 30.112 1.987-3.215 16.673-11.529 24.264-13.736 17.932-5.213 41.395-.41 50.902 10.418 9.273 10.561 10.057 14.375 11.518 56.049 1.517 43.279 1.13 46.058-6.316 45.34l-4.64-.447-.879-37.108c-.492-20.78-1.608-39.748-2.535-43.108-3.364-12.194-12.446-18.365-29.35-19.944-18.406-1.718-34.94 7.735-42.348 24.212-3.137 6.979-3.376 9.484-3.842 40.267-.3 19.825-1.084 33.532-1.978 34.61-2.252 2.713-7.98 2.133-9.645-.976zM1263.936 228.326c-.561-.56-1.02-25.194-1.02-54.742 0-58.317.168-59.638 7.349-57.835 3.424.859 3.729 1.64 4.582 11.735 1.172 13.865.96 84.504-.281 93.877-.882 6.658-1.236 7.164-5.279 7.56-2.383.234-4.791-.034-5.352-.595zM1262.118 97.263c-2.947-4.497-2.268-7.64 2.404-11.125 3.2-2.386 4.242-2.534 7.136-1.008 4.188 2.207 5.48 4.065 5.509 7.917.054 7.372-10.96 10.457-15.05 4.216zM1313.31 227.426c-1.42-2.192-2.435-93.079-1.157-103.473.903-7.345 1.014-7.492 5.65-7.492 4.66 0 4.741.111 5.708 7.85.54 4.317 1.324 7.849 1.743 7.849.42 0 3.208-1.937 6.197-4.305 10.04-7.952 20.834-11.894 34.365-12.553 30.058-1.463 45.483 12.153 48.444 42.762 1.791 18.52 1.717 64.973-.11 68.386-1.662 3.107-7.414 3.692-9.596.976-.836-1.04-1.726-17.542-2.135-39.605-.451-24.348-1.308-39.346-2.405-42.103-3.995-10.044-14.058-16.195-28.474-17.403-19.088-1.6-34.354 6.843-42.527 23.52-3.959 8.08-4 8.449-4.414 39.554-.23 17.27-.727 32.844-1.106 34.61-.523 2.44-1.69 3.211-4.858 3.211-2.294 0-4.69-.803-5.325-1.784z" fill="#364249"/></svg> 